<svg xmlns="http://www.w3.org/2000/svg" version="1.1" xmlns:xlink="http://www.w3.org/1999/xlink" xmlns:svgjs="http://svgjs.com/svgjs" width="400" height="800" preserveAspectRatio="none" viewBox="0 0 400 800"><g mask="url(&quot;#SvgjsMask1743&quot;)" fill="none"><rect width="400" height="800" x="0" y="0" fill="url(#SvgjsLinearGradient1744)"></rect><path d="M284.605,519.048C301.858,520.134,319.843,514.245,328.868,499.501C338.236,484.196,336.285,464.829,327.299,449.296C318.328,433.789,302.498,422.113,284.605,422.994C267.847,423.819,256.093,438.147,248.62,453.169C242.046,466.383,241.968,481.525,249.043,494.478C256.446,508.031,269.192,518.078,284.605,519.048" fill="rgba(28, 83, 142, 0.4)" class="triangle-float1"></path><path d="M347.545,500.36C379.894,500.537,413.912,488.819,428.598,459.996C442.397,432.914,425.203,403.456,410.466,376.873C395.032,349.034,379.348,315.127,347.545,313.793C314.461,312.405,290.66,342.132,274.763,371.179C259.635,398.82,252.544,431.666,268.011,459.119C283.723,487.006,315.537,500.185,347.545,500.36" fill="rgba(28, 83, 142, 0.4)" class="triangle-float3"></path><path d="M123.95,171.632C156.494,173.351,191.812,162.685,206.971,133.836C221.465,106.252,205.9,74.496,188.613,48.571C173.621,26.088,150.935,10.763,123.95,9.331C93.996,7.741,61.503,15.216,46.197,41.013C30.66,67.2,39.272,99.637,54.847,125.801C70,151.256,94.367,170.069,123.95,171.632" fill="rgba(28, 83, 142, 0.4)" class="triangle-float3"></path><path d="M378.899,403.954C394.796,404.398,410.55,398.22,419.081,384.799C428.244,370.384,430.17,351.72,421.428,337.046C412.858,322.661,395.64,317.678,378.899,317.35C361.419,317.007,341.907,320.056,333.382,335.32C324.986,350.352,332.908,368.309,342.424,382.658C350.764,395.234,363.815,403.533,378.899,403.954" fill="rgba(28, 83, 142, 0.4)" class="triangle-float3"></path><path d="M355.305,173.248C390.424,174.848,427.436,161.979,444.214,131.086C460.45,101.192,448.715,64.965,429.277,37.047C412.687,13.22,384.324,2.45,355.305,3.391C328.043,4.275,303.764,18.527,289.2,41.589C273.448,66.531,266.167,97.213,279.404,123.576C293.945,152.537,322.932,171.773,355.305,173.248" fill="rgba(28, 83, 142, 0.4)" class="triangle-float2"></path><path d="M62.998,117.692C88.961,117.957,107.384,94.675,119.113,71.511C129.581,50.837,129.889,27.224,119.225,6.65C107.547,-15.88,88.34,-35.43,62.998,-36.755C35.568,-38.189,7.964,-24.328,-4.429,0.184C-15.945,22.962,-3.871,48.248,8.832,70.386C21.619,92.671,37.306,117.43,62.998,117.692" fill="rgba(28, 83, 142, 0.4)" class="triangle-float3"></path></g><defs><mask id="SvgjsMask1743"><rect width="400" height="800" fill="#ffffff"></rect></mask><linearGradient x1="-25%" y1="12.5%" x2="125%" y2="87.5%" gradientUnits="userSpaceOnUse" id="SvgjsLinearGradient1744"><stop stop-color="#0e2a47" offset="0"></stop><stop stop-color="rgba(92, 184, 197, 1)" offset="1"></stop></linearGradient><style>
            @keyframes float1 {
                0%{transform: translate(0, 0)}
                50%{transform: translate(-10px, 0)}
                100%{transform: translate(0, 0)}
            }

            .triangle-float1 {
                animation: float1 5s infinite;
            }

            @keyframes float2 {
                0%{transform: translate(0, 0)}
                50%{transform: translate(-5px, -5px)}
                100%{transform: translate(0, 0)}
            }

            .triangle-float2 {
                animation: float2 4s infinite;
            }

            @keyframes float3 {
                0%{transform: translate(0, 0)}
                50%{transform: translate(0, -10px)}
                100%{transform: translate(0, 0)}
            }

            .triangle-float3 {
                animation: float3 6s infinite;
            }
        </style></defs></svg>