<svg xmlns="http://www.w3.org/2000/svg" version="1.1" xmlns:xlink="http://www.w3.org/1999/xlink" xmlns:svgjs="http://svgjs.com/svgjs" width="1440" height="560" preserveAspectRatio="none" viewBox="0 0 1440 560"><g mask="url(&quot;#SvgjsMask1507&quot;)" fill="none"><rect width="1440" height="560" x="0" y="0" fill="url(#SvgjsLinearGradient1508)"></rect><path d="M25.012,408.818C43.132,409.269,56.588,394.409,66,378.918C75.905,362.615,84.725,342.804,75.142,326.31C65.586,309.863,43.99,307.081,25.012,308.373C8.512,309.496,-6.595,317.913,-14.545,332.415C-22.203,346.384,-19.913,362.816,-12.589,376.962C-4.494,392.598,7.41,408.38,25.012,408.818" fill="rgba(28, 83, 142, 0.4)" class="triangle-float2"></path><path d="M1105.171,576.02C1131.598,575.813,1152.94,555.901,1164.845,532.306C1175.58,511.03,1173.023,486.195,1160.819,465.726C1148.935,445.793,1128.374,432.674,1105.171,432.218C1081.144,431.745,1058.067,442.915,1045.599,463.46C1032.658,484.783,1032.186,511.209,1043.854,533.255C1056.347,556.861,1078.464,576.229,1105.171,576.02" fill="rgba(28, 83, 142, 0.4)" class="triangle-float1"></path><path d="M1330.599,216.849C1348.189,217.665,1367.659,213.544,1376.2,198.145C1384.581,183.036,1376.196,165.441,1367.345,150.602C1358.788,136.256,1347.272,122.712,1330.599,121.693C1312.29,120.574,1293.804,129.403,1285.149,145.576C1276.871,161.043,1282.346,179.439,1291.778,194.23C1300.409,207.764,1314.564,216.105,1330.599,216.849" fill="rgba(28, 83, 142, 0.4)" class="triangle-float1"></path><path d="M127.728,305.304C148.867,306.272,168.633,293.655,178.619,274.999C188.106,257.275,183.639,236.545,173.966,218.922C163.825,200.446,148.803,182.532,127.728,182.286C106.351,182.037,89.008,198.632,79.585,217.821C71.228,234.84,75.18,254.067,84.321,270.678C93.886,288.058,107.911,304.396,127.728,305.304" fill="rgba(28, 83, 142, 0.4)" class="triangle-float3"></path><path d="M135.43,409.153C172.763,408.733,194.028,371.404,213.239,339.391C233.32,305.928,258.158,268.591,240.732,233.672C222.122,196.38,177.051,181.305,135.43,183.47C97.41,185.448,64.913,209.849,47.536,243.723C31.603,274.782,38.15,310.351,54.528,341.177C72.241,374.516,97.68,409.578,135.43,409.153" fill="rgba(28, 83, 142, 0.4)" class="triangle-float2"></path><path d="M1124.83,338.347C1151.329,339.734,1172.598,318.584,1185.374,295.327C1197.623,273.03,1201.487,245.445,1187.561,224.155C1174.599,204.34,1148.507,202.957,1124.83,202.773C1100.682,202.585,1072.533,202.294,1060.387,223.166C1048.203,244.103,1062.521,268.378,1074.349,289.518C1086.601,311.416,1099.772,337.036,1124.83,338.347" fill="rgba(28, 83, 142, 0.4)" class="triangle-float2"></path></g><defs><mask id="SvgjsMask1507"><rect width="1440" height="560" fill="#ffffff"></rect></mask><linearGradient x1="15.28%" y1="-39.29%" x2="84.72%" y2="139.29%" gradientUnits="userSpaceOnUse" id="SvgjsLinearGradient1508"><stop stop-color="#0e2a47" offset="0"></stop><stop stop-color="rgba(92, 184, 197, 1)" offset="1"></stop></linearGradient><style>
            @keyframes float1 {
                0%{transform: translate(0, 0)}
                50%{transform: translate(-10px, 0)}
                100%{transform: translate(0, 0)}
            }

            .triangle-float1 {
                animation: float1 5s infinite;
            }

            @keyframes float2 {
                0%{transform: translate(0, 0)}
                50%{transform: translate(-5px, -5px)}
                100%{transform: translate(0, 0)}
            }

            .triangle-float2 {
                animation: float2 4s infinite;
            }

            @keyframes float3 {
                0%{transform: translate(0, 0)}
                50%{transform: translate(0, -10px)}
                100%{transform: translate(0, 0)}
            }

            .triangle-float3 {
                animation: float3 6s infinite;
            }
        </style></defs></svg>