<svg id="visual" viewBox="0 0 540 960" width="540" height="960" xmlns="http://www.w3.org/2000/svg" xmlns:xlink="http://www.w3.org/1999/xlink" version="1.1"><rect x="0" y="0" width="540" height="960" fill="#001220"></rect><defs><linearGradient id="grad1_0" x1="0%" y1="0%" x2="100%" y2="100%"><stop offset="30%" stop-color="#001220" stop-opacity="1"></stop><stop offset="70%" stop-color="#001220" stop-opacity="1"></stop></linearGradient></defs><defs><linearGradient id="grad2_0" x1="0%" y1="0%" x2="100%" y2="100%"><stop offset="30%" stop-color="#001220" stop-opacity="1"></stop><stop offset="70%" stop-color="#001220" stop-opacity="1"></stop></linearGradient></defs><g transform="translate(540, 0)"><path d="M0 216C-26.7 207.6 -53.3 199.2 -78.1 188.5C-102.8 177.7 -125.7 164.5 -147.1 147.1C-168.5 129.6 -188.3 107.9 -199.6 82.7C-210.8 57.4 -213.4 28.7 -216 0L0 0Z" fill="#c55c6b"></path></g><g transform="translate(0, 960)"><path d="M0 -216C22.2 -200 44.3 -183.9 73.1 -176.5C101.9 -169 137.3 -170.2 152.7 -152.7C168.2 -135.3 163.7 -99.3 170.9 -70.8C178.1 -42.2 197.1 -21.1 216 0L0 0Z" fill="#c55c6b"></path></g></svg>