<svg xmlns="http://www.w3.org/2000/svg" version="1.1" xmlns:xlink="http://www.w3.org/1999/xlink" xmlns:svgjs="http://svgjs.com/svgjs" width="400" height="800" preserveAspectRatio="none" viewBox="0 0 400 800"><g mask="url(&quot;#SvgjsMask2524&quot;)" fill="none"><rect width="400" height="800" x="0" y="0" fill="url(#SvgjsRadialGradient2525)"></rect><path d="M337.211,712.685C360.174,711.242,377.158,694.271,389.181,674.654C401.957,653.81,412.572,629.31,401.749,607.388C389.904,583.396,363.966,569.052,337.211,569.386C310.992,569.713,288.461,586.226,275.403,608.964C262.402,631.602,259.186,659.555,272.55,681.981C285.641,703.949,311.688,714.288,337.211,712.685" fill="rgba(40, 149, 121, 1)" class="triangle-float2"></path><path d="M118.159,855.533C150.731,853.714,173.238,826.878,189.59,798.649C205.996,770.326,219.759,736.544,203.559,708.102C187.249,679.467,151.112,673.443,118.159,673.243C84.742,673.04,49.081,678.986,30.946,707.055C11.476,737.191,13.264,776.542,31.435,807.478C49.375,838.021,82.792,857.508,118.159,855.533" fill="rgba(40, 149, 121, 1)" class="triangle-float1"></path><path d="M86.951,614.621C108.455,614.391,127.497,601.221,137.737,582.31C147.5,564.279,144.935,543.165,135.5,524.96C125.092,504.877,109.569,484.629,86.951,484.317C63.978,484,46.813,503.302,36.026,523.587C25.986,542.467,23.81,564.754,34.25,583.416C44.933,602.512,65.071,614.855,86.951,614.621" fill="rgba(40, 149, 121, 1)" class="triangle-float1"></path><path d="M398.972,861.81C433.226,860.696,466.803,850.34,486.331,822.175C509.095,789.343,521.141,747.266,503.109,711.615C483.553,672.951,442.239,647.153,398.972,649.457C358.736,651.6,331.763,686.421,312.424,721.77C294.073,755.312,281.085,795.672,301.185,828.196C320.606,859.621,362.05,863.011,398.972,861.81" fill="rgba(40, 149, 121, 1)" class="triangle-float2"></path><path d="M146.058,76.265C165.995,75.9,186.23,68.826,196.067,51.482C205.797,34.326,201.277,13.501,191.309,-3.517C181.467,-20.319,165.524,-33.405,146.058,-33.897C125.781,-34.409,107.234,-23.22,96.664,-5.909C85.604,12.206,81.842,35.18,92.776,53.371C103.45,71.129,125.342,76.644,146.058,76.265" fill="rgba(40, 149, 121, 1)" class="triangle-float2"></path></g><defs><mask id="SvgjsMask2524"><rect width="400" height="800" fill="#ffffff"></rect></mask><radialGradient cx="0%" cy="0%" r="894.43" gradientUnits="userSpaceOnUse" id="SvgjsRadialGradient2525"><stop stop-color="#0e2a47" offset="0"></stop><stop stop-color="rgba(99, 181, 193, 1)" offset="0.75"></stop></radialGradient><style>
            @keyframes float1 {
                0%{transform: translate(0, 0)}
                50%{transform: translate(-10px, 0)}
                100%{transform: translate(0, 0)}
            }

            .triangle-float1 {
                animation: float1 5s infinite;
            }

            @keyframes float2 {
                0%{transform: translate(0, 0)}
                50%{transform: translate(-5px, -5px)}
                100%{transform: translate(0, 0)}
            }

            .triangle-float2 {
                animation: float2 4s infinite;
            }

            @keyframes float3 {
                0%{transform: translate(0, 0)}
                50%{transform: translate(0, -10px)}
                100%{transform: translate(0, 0)}
            }

            .triangle-float3 {
                animation: float3 6s infinite;
            }
        </style></defs></svg>